{"title":"The.Hittites.2003.HDTV.DivX-Atilla82","uid":8109717,"size":1116068635,"categoryP":"video","categoryS":"movies","magnet":"?xt=urn:btih:ebac9bda9675738b464c7dc2ad7b389ba7398ed6&amp;dn=The.Hittites.2003.HDTV.DivX-Atilla82&amp;tr=udp%3A%2F%2Ftracker.openbittorrent.com%3A80&amp;tr=udp%3A%2F%2Fopen.demonii.com%3A1337&amp;tr=udp%3A%2F%2Ftracker.coppersurfer.tk%3A6969&amp;tr=udp%3A%2F%2Fexodus.desync.com%3A6969","seeders":1,"leechers":1,"uploader":"Atilla82","files":4,"time":1360163197,"description":"The Hittites 2003 HDTV DivX-Atilla82\n\ndocumentary\n\n\n\nHittites (2003) \nHititler (original title)\n\n\n\n &lt;a href=&quot;\nhttp://www.imdb.com/title/tt0366578/&quot; rel=&quot;nofollow&quot; target=&quot;_NEW&quot;&gt;\nhttp://www.imdb.com/title/tt0366578/&lt;/a&gt;\n\n\nJeremy Irons\t ...\tNarrator\n\n\nA documentary about the rise and fall of the Hittite empire, \nwhich existed about 3500 years ago in what is now central Turkey.\n\n\n\nSource: The Hittites x264 720p AC3 HDTV-MVGroup\n\n\n\nGeneral\nComplete name : The.Hittites.2003.HDTV.DivX-Atilla82.avi\nFormat : AVI\nFormat/Info : Audio Video Interleave\nFile size : 1.04 GiB\nDuration : 1h 58mn\nOverall bit rate : 1 250 Kbps\nWriting application : VirtualDubMod 1.5.10.2 (build 2540/release)\nWriting library : VirtualDubMod build 2540/release\n\nVideo\nID : 0\nFormat : MPEG-4 Visual\nFormat settings, BVOP : 1\nFormat settings, QPel : No\nFormat settings, GMC : No warppoints\nFormat settings, Matrix : Default (H.263)\nMuxing mode : Packed bitstream\nCodec ID : DX50\nCodec ID/Hint : DivX 5\nDuration : 1h 58mn\nBit rate : 1 049 Kbps\nWidth : 720 pixels\nHeight : 406 pixels\nDisplay aspect ratio : 16:9\nFrame rate : 25.000 fps\nColor space : YUV\nChroma subsampling : 4:2:0\nBit depth : 8 bits\nScan type : Progressive\nCompression mode : Lossy\nBits/(Pixel*Frame) : 0.143\nStream size : 892 MiB (84%)\nWriting library : DivX 2682\n\nAudio\nID : 1\nFormat : MPEG Audio\nFormat version : Version 1\nFormat profile : Layer 3\nMode : Joint stereo\nMode extension : MS Stereo\nCodec ID : 55\nCodec ID/Hint : MP3\nDuration : 1h 58mn\nBit rate mode : Constant\nBit rate : 192 Kbps\nChannel(s) : 2 channels\nSampling rate : 48.0 KHz\nCompression mode : Lossy\nStream size : 163 MiB (15%)\nAlignment : Aligned on interleaves\nInterleave, duration : 40 ms (1.00 video frame)\nInterleave, preload duration : 504 ms\n\n\nSCREENSHOTS &lt;a href=&quot;\nhttp://www.pohrani.com/f/2u/gV/2Dh7Cn5Z/screenshots.jpg&quot; rel=&quot;nofollow&quot; target=&quot;_NEW&quot;&gt;\nhttp://www.pohrani.com/f/2u/gV/2Dh7Cn5Z/screenshots.jpg&lt;/a&gt;\n\n","torrent":{"xt":"urn:btih:ebac9bda9675738b464c7dc2ad7b389ba7398ed6","amp;dn":"The.Hittites.2003.HDTV.DivX-Atilla82","amp;tr":["udp%3A%2F%2Ftracker.openbittorrent.com%3A80","udp%3A%2F%2Fopen.demonii.com%3A1337","udp%3A%2F%2Ftracker.coppersurfer.tk%3A6969","udp%3A%2F%2Fexodus.desync.com%3A6969"],"infoHash":"ebac9bda9675738b464c7dc2ad7b389ba7398ed6","infoHashBuffer":{"type":"Buffer","data":[235,172,155,218,150,117,115,139,70,76,125,194,173,123,56,155,167,57,142,214]},"announce":[],"urlList":[]}}